<svg width="12" height="12" viewBox="0 0 12 12" xmlns="http://www.w3.org/2000/svg"><path d="M5.523 7.297c.052.097.095.198.13.304.045.164.134.31.258.426.117.125.265.214.43.258.144.044.28.106.41.182l4.43-4.412c.188-.182.486-.18.67.004.185.183.188.482.007.67l-4.69 4.67c-.065.08-.153.14-.253.167L.77 11.97c-.057.023-.116.034-.176.034-.157 0-.304-.075-.394-.204l-.15-.217c-.09-.13-.11-.297-.052-.444l2.378-6.025.01-.052c.033-.128.116-.234.227-.297L7.253.144c.187-.186.49-.186.676 0 .09.09.14.21.14.337 0 .127-.05.248-.14.337L3.5 5.23c.08.128.143.267.188.413.104.328.362.584.69.687.184.06.356.146.51.253l.013-.017 4.042-4.024c.187-.182.485-.18.67.004.184.183.187.482.006.67l-4.095 4.08zM2.937 6.3l-.992 2.512 1.208 1.203L5.67 9.03c-.43-.242-.762-.637-.92-1.115-.103-.328-.36-.584-.69-.686-.48-.16-.88-.494-1.123-.93zm.274-.694L6 8.9h-.002L3.21 5.607zM1.564 9.78l-.4 1.016 1.02-.4-.62-.617z" fill="#898989" fill-rule="evenodd"/></svg>