<svg width="38" height="33" viewBox="0 0 38 33" xmlns="http://www.w3.org/2000/svg" xmlns:sketch="http://www.bohemiancoding.com/sketch/ns"><title>gp</title><g sketch:type="MSShapeGroup" fill="#FFFFFF"><path d="M37.6 6.9h-6.3v-6.3h-1.6v6.3h-6.3v1.6h6.3v6.3h1.6v-6.3h6.3v-1.6zM16.5 18.8c-.9-.6-2.6-2.1-2.6-3 0-1 .3-1.6 1.9-2.8 1.6-1.3 2.8-3 2.8-5.1 0-2.5-1.1-4.9-3.2-5.7h3.1l2.2-1.6h-9.8c-4.4 0-8.5 3.3-8.5 7.2 0 3.9 3 7.1 7.5 7.1h.9c-.3.6-.5 1.2-.5 1.8 0 1.1.6 2 1.3 2.7h-1.7c-5.4 0-9.6 3.5-9.6 7.1 0 3.5 4.6 5.7 10 5.7 6.2 0 9.6-3.5 9.6-7 0-2.9-.9-4.6-3.4-6.4zm-5.3-4.9c-2.5-.1-4.9-2.8-5.4-6.1-.4-3.3 1.3-5.8 3.8-5.8 2.5.1 4.9 2.7 5.4 6 .4 3.3-1.3 5.9-3.8 5.9zm-1 16.7c-3.8 0-6.5-2.4-6.5-5.2 0-2.8 3.4-5.1 7.1-5.1.9 0 1.7.2 2.4.4 2 1.4 3.5 2.2 3.9 3.8.1.3.1.7.1 1 .2 2.9-1.7 5.1-7 5.1z"/></g></svg>
