<svg xmlns="http://www.w3.org/2000/svg" width="16" height="22" viewBox="0 0 16 22">
  <defs>
    <style>
      .cls-1 {
        fill: #fff;
        fill-rule: evenodd;
      }
    </style>
  </defs>
  <path id="lock.svg" class="cls-1" d="M484.991,329.73a2.67,2.67,0,0,0-2.662-2.383h-0.368v-3.165a5.234,5.234,0,0,0-10.467,0v3.171A2.654,2.654,0,0,0,469,330v8.35a2.667,2.667,0,0,0,2.676,2.654h10.658a2.667,2.667,0,0,0,2.676-2.654V330A2.686,2.686,0,0,0,484.991,329.73Zm-8.263-8.9a3.366,3.366,0,0,1,3.377,3.347v3.165H473.35v-3.165A3.366,3.366,0,0,1,476.728,320.835Zm6.42,17.516a0.817,0.817,0,0,1-.819.814H471.671a0.817,0.817,0,0,1-.819-0.814V330a0.756,0.756,0,0,1,0-.083,0.558,0.558,0,0,1,.009-0.059l0-.022,0.012-.047c0-.01,0-0.021.008-0.031s0.008-.02.011-0.03l0.017-.045c0-.008.008-0.015,0.011-0.023s0.015-.032.024-0.048a0.239,0.239,0,0,1,.013-0.021c0.009-.016.018-0.031,0.028-0.046l0-.006a0.817,0.817,0,0,1,.591-0.349,0.789,0.789,0,0,1,.084,0h10.658a0.789,0.789,0,0,1,.084,0,0.817,0.817,0,0,1,.591.349l0,0.006c0.01,0.015.019,0.03,0.028,0.046a0.239,0.239,0,0,1,.013.021c0.007,0.012.012,0.024,0.018,0.036s0.012,0.023.017,0.035a0.34,0.34,0,0,1,.012.034c0.006,0.013.011,0.027,0.016,0.041s0,0.021.008,0.031,0.009,0.031.012,0.047l0,0.022a0.558,0.558,0,0,1,.009.059,0.756,0.756,0,0,1,0,.083v8.35Zm-7.446-2.228a1.3,1.3,0,1,1,1.3,1.286A1.292,1.292,0,0,1,475.7,336.123Zm0-3.9a1.3,1.3,0,1,1,1.3,1.286A1.29,1.29,0,0,1,475.7,332.227Z" transform="translate(-469 -319)"/>
</svg>
