<svg width="39" height="33" viewBox="0 0 39 33" xmlns="http://www.w3.org/2000/svg"><path d="M19.02 20.923h-5.78c-1.185-.005-2.32.478-3.138 1.336-.817.857-1.245 2.014-1.182 3.198v3.007c-.063 1.184.365 2.34 1.182 3.2.818.857 1.953 1.34 3.138 1.335H34.3c2.548.04 4.65-1.987 4.7-4.535v-3.007c-.05-2.548-2.152-4.576-4.7-4.535H20.83c.188-.206.308-.478.32-.78v-6c-.034-1.915-1.614-3.44-3.53-3.41h-.49V6.666C16.99 2.95 13.934.01 10.215.01 6.495.01 3.44 2.95 3.3 6.665v4.07c-1.81.094-3.263 1.57-3.3 3.408v10.73c.04 1.917 1.622 3.442 3.54 3.41h2.63c.434.02.843-.202 1.065-.576.222-.373.222-.837 0-1.21-.222-.374-.63-.595-1.065-.577H3.54c-.59.012-1.077-.456-1.09-1.046v-10.73c.013-.59.5-1.058 1.09-1.047h14.08c.282-.005.555.103.757.3.203.196.32.465.323.747v6c.012.3.132.573.32.78zm-4.34-10.19V6.666c-.088-2.402-2.06-4.304-4.465-4.304-2.404 0-4.377 1.902-4.465 4.304v4.067h8.93zm-1.44 12.275c-1.22-.02-2.226.95-2.25 2.17v3.507c.02 1.237 1.013 2.237 2.25 2.264H34.3c1.314 0 2.43-.965 2.62-2.265v-3.508c0-1.2-1.38-2.17-2.62-2.17H13.24zm3.1 2.3c.903.037 1.61.792 1.585 1.696-.024.904-.77 1.62-1.674 1.608-.903-.012-1.63-.748-1.63-1.652.01-.447.196-.872.518-1.18.323-.31.755-.48 1.202-.47v-.002zm5.19 0c.905.03 1.616.785 1.596 1.69-.02.905-.767 1.625-1.672 1.615-.905-.01-1.634-.747-1.634-1.653.008-.446.192-.87.513-1.18.32-.31.75-.478 1.197-.47v-.002zm5.19 0c.906.03 1.618.784 1.598 1.69-.02.906-.767 1.627-1.673 1.617-.906-.01-1.635-.748-1.635-1.654.02-.926.783-1.664 1.71-1.65v-.002zm5.2.003c.904.038 1.61.794 1.585 1.698-.024.904-.77 1.62-1.675 1.607-.905-.012-1.63-.75-1.63-1.654.01-.446.195-.87.518-1.18.323-.31.755-.48 1.202-.47z" fill="#FFF" fill-rule="evenodd"/></svg>