<svg xmlns="http://www.w3.org/2000/svg" width="16" height="22" viewBox="0 0 16 22"><defs><style>.cls-1 { fill: #fff; fill-rule: evenodd; }</style></defs><path id="lock.svg" class="cls-1" d="M15.99 10.73a2.67 2.67 0 0 0-2.66-2.383h-.37V5.182a5.234 5.234 0 0 0-10.466 0v3.17A2.654 2.654 0 0 0 0 11v8.35a2.667 2.667 0 0 0 2.676 2.654h10.658a2.667 2.667 0 0 0 2.676-2.654V11a2.686 2.686 0 0 0-.02-.27zM7.73 1.83a3.366 3.366 0 0 1 3.377 3.347v3.165H4.35V5.177a3.366 3.366 0 0 1 3.378-3.342zm6.42 17.516a.817.817 0 0 1-.82.814H2.672a.817.817 0 0 1-.818-.814V11a.756.756 0 0 1 0-.083.558.558 0 0 1 .01-.06v-.02l.01-.048c0-.01 0-.022.01-.032s.007-.02.01-.03l.017-.045c0-.008.007-.015.01-.023l.024-.048a.24.24 0 0 1 .013-.02l.028-.047v-.006a.817.817 0 0 1 .59-.35.79.79 0 0 1 .085 0h10.658a.79.79 0 0 1 .084 0 .817.817 0 0 1 .59.35v.005l.03.046a.24.24 0 0 1 .012.022l.018.036.017.035a.34.34 0 0 1 .01.034c.007.013.012.027.017.04s0 .022.008.032.01.03.012.046v.022a.558.558 0 0 1 .01.06.756.756 0 0 1 0 .082v8.35zm-7.446-2.228a1.3 1.3 0 1 1 1.3 1.286 1.292 1.292 0 0 1-1.302-1.28zm0-3.9a1.3 1.3 0 1 1 1.3 1.286A1.29 1.29 0 0 1 6.7 13.227z"/></svg>