<svg width="179" height="47" viewBox="0 0 179 47" xmlns="http://www.w3.org/2000/svg" xmlns:xlink="http://www.w3.org/1999/xlink"><defs><path id="a" d="M0 .943h178.433V47H0V.943z"/><path id="c" d="M0 .943h178.433V47H0V.943z"/></defs><g fill="none" fill-rule="evenodd"><path d="M23.666 20.404v5.693h4.21l-.002-5.757 5.78-9.446H28.93l-3.137 5.545-3.108-5.546h-4.802l5.78 9.51zM4.125 26.097v-8.685l3.869 5.905h.085l3.88-5.945-.002 8.725h4.21V10.9h-4.463l-3.627 5.88-3.625-5.88H0v15.197h4.125zm115.692.078V22.59h-8.163v-2.406h7.294v-3.33h-7.294v-2.3h8.058v-3.582h-12.225V26.17h12.33v.005zM95.657 14.3h2.725c.496-.03.99.09 1.417.345.32.22.504.588.487.976 0 .924-.665 1.385-1.99 1.385H95.65v-2.708l.004.004zm0 5.683h3.205c.54-.037 1.08.093 1.544.373.337.23.53.614.52 1.02.022.43-.178.842-.53 1.092-.447.277-.968.41-1.493.378h-3.247v-2.864zm3.716 6.192c1.493.087 2.977-.3 4.237-1.103.993-.69 1.567-1.838 1.523-3.047.047-.876-.227-1.74-.773-2.426-.61-.66-1.388-1.142-2.25-1.395 1.442-.51 2.39-1.892 2.346-3.42.028-.924-.33-1.817-.987-2.465-1.148-.982-2.64-1.466-4.147-1.347h-7.79L91.53 26.17h7.847l-.004.005zm-23.077-1.448c1.438 1.23 3.297 1.85 5.185 1.734.996.015 1.987-.126 2.94-.418.826-.26 1.59-.69 2.24-1.267.653-.605 1.147-1.362 1.438-2.204.35-1.017.52-2.09.498-3.166v-8.432h-4.273v8.563c.064.848-.202 1.688-.742 2.345-.54.542-1.29.828-2.055.785-.773.043-1.525-.255-2.06-.814-.54-.685-.803-1.548-.74-2.42v-8.458h-4.272v8.535c0 2.325.614 4.065 1.843 5.22z" fill="#26D7FC"/><mask id="b" fill="#fff"><use xlink:href="#a"/></mask><path d="M53.943 9.428c5.172.1 9.293 4.355 9.227 9.527-.067 5.173-4.296 9.322-9.468 9.29-5.17-.034-9.35-4.236-9.35-9.408.025-2.52 1.05-4.925 2.847-6.69 1.797-1.764 4.223-2.742 6.742-2.72v.002zm15.17 19.111c3.162-4.9 3.78-11.127 1.457-16.646C67.757 5.212 61.192.888 53.943.944c-4.727.018-9.255 1.913-12.584 5.268-3.33 3.356-5.19 7.896-5.172 12.623 0 7.25 4.373 13.782 11.076 16.542 5.624 2.317 11.956 1.594 16.864-1.74l5.105 5.303 4.945-5.137-5.066-5.263z" fill="#FC0D1B" mask="url(#b)"/><path d="M74.678 45.415l1.265-1.515c.876.723 1.793 1.18 2.905 1.18.876 0 1.404-.346 1.404-.943 0-.543-.333-.82-1.96-1.238-1.96-.502-3.225-1.044-3.225-3.004 0-1.765 1.418-2.932 3.406-2.932 1.418 0 2.627.444 3.614 1.236l-1.112 1.613c-.862-.597-1.71-.96-2.53-.96-.82 0-1.25.376-1.25.876 0 .64.416.848 2.098 1.28 1.974.512 3.086 1.22 3.086 2.945 0 1.933-1.474 3.017-3.574 3.017-1.473 0-2.96-.514-4.128-1.557M91.775 41.968c0-1.668-1.224-3.06-2.947-3.06-1.724 0-2.92 1.364-2.92 3.06 0 1.668 1.223 3.06 2.947 3.06s2.92-1.364 2.92-3.06m-8.104 0c0-2.767 2.183-5.032 5.185-5.032 3.003 0 5.157 2.238 5.157 5.032 0 2.767-2.18 5.032-5.184 5.032-3.003 0-5.157-2.238-5.157-5.032M95.345 41.968c0-2.767 2.086-5.032 5.074-5.032 1.834 0 2.862.695 3.766 1.585l-1.28 1.474c-.75-.68-1.39-1.085-2.5-1.085-1.64 0-2.823 1.362-2.823 3.058 0 1.668 1.155 3.06 2.823 3.06 1.11 0 1.793-.447 2.557-1.142l1.362 1.46c-1 1.07-2.113 1.654-3.99 1.654-2.863 0-4.99-2.21-4.99-5.032" fill="#26D7FC"/><mask id="d" fill="#fff"><use xlink:href="#c"/></mask><path d="M105.99 37.103h2.142v9.73h-2.14v-9.73zM116.013 42.76l-1.293-3.155-1.293 3.155h2.586zm-2.252-5.727h1.975l4.17 9.8h-2.237l-.89-2.182h-4.116l-.89 2.183h-2.18l4.17-9.8zM121.266 37.102h2.14v7.785h4.852v1.946h-6.992v-9.73zM133.094 45.415l1.266-1.515c.876.723 1.793 1.18 2.905 1.18.876 0 1.403-.346 1.403-.943 0-.543-.333-.82-1.96-1.238-1.96-.502-3.224-1.044-3.224-3.004 0-1.765 1.418-2.932 3.405-2.932 1.417 0 2.627.444 3.613 1.236l-1.11 1.613c-.863-.597-1.71-.96-2.53-.96-.822 0-1.252.376-1.252.876 0 .64.418.848 2.1 1.28 1.974.512 3.085 1.22 3.085 2.945 0 1.933-1.473 3.017-3.572 3.017-1.474 0-2.96-.514-4.13-1.557M146.353 42.01c1.07 0 1.696-.64 1.696-1.502 0-.96-.668-1.473-1.738-1.473h-1.654v2.975h1.695zm-3.836-4.907h3.976c2.32 0 3.725 1.376 3.725 3.39 0 2.253-1.752 3.42-3.934 3.42h-1.626v2.92h-2.14v-9.73zM156.278 42.76l-1.293-3.155-1.293 3.155h2.586zm-2.252-5.727H156l4.17 9.8h-2.238l-.89-2.182h-4.115l-.89 2.183h-2.18l4.17-9.8zM160.475 41.968c0-2.767 2.085-5.032 5.073-5.032 1.835 0 2.863.695 3.767 1.585l-1.28 1.474c-.75-.68-1.388-1.085-2.5-1.085-1.64 0-2.822 1.362-2.822 3.058 0 1.668 1.155 3.06 2.823 3.06 1.11 0 1.792-.447 2.556-1.142l1.362 1.46c-1 1.07-2.113 1.654-3.99 1.654-2.863 0-4.99-2.21-4.99-5.032M171.024 37.102h7.34v1.905h-5.213v1.974h4.588v1.905h-4.587v2.044l5.283-.002v1.905h-7.41v-9.73z" fill="#26D7FC" mask="url(#d)"/></g></svg>