<svg width="133" height="42" viewBox="0 0 133 42" xmlns="http://www.w3.org/2000/svg"><g fill="none" fill-rule="evenodd"><path d="M84.336 26.29c1.59 1.36 3.644 2.047 5.73 1.917 1.1.016 2.196-.14 3.248-.463.915-.286 1.76-.763 2.475-1.4.722-.67 1.268-1.506 1.59-2.437.387-1.125.573-2.31.55-3.5v-9.32h-4.723v9.464c.07.938-.223 1.867-.82 2.593-.6.6-1.426.915-2.273.868-.853.05-1.684-.28-2.274-.9-.598-.756-.89-1.71-.82-2.673v-9.35h-4.723v9.433c0 2.57.68 4.494 2.04 5.77zm25.507 1.6c1.65.098 3.29-.33 4.685-1.218 1.097-.763 1.73-2.032 1.683-3.368.053-.97-.25-1.923-.855-2.682-.675-.728-1.534-1.26-2.487-1.54 1.595-.563 2.643-2.092 2.593-3.782.033-1.02-.36-2.007-1.088-2.724-1.27-1.085-2.918-1.62-4.583-1.49h-8.614v16.8h8.672l-.005.005zm-4.108-6.843h3.543c.598-.04 1.194.103 1.708.412.37.252.587.678.573 1.127.023.476-.197.93-.586 1.206-.493.307-1.07.453-1.65.418h-3.59v-3.164zm0-6.28h3.013c.55-.036 1.095.096 1.567.38.353.242.557.65.538 1.078 0 1.02-.733 1.53-2.2 1.53h-2.923V14.76l.005.006zm26.707 13.124v-3.96h-9.024v-2.66h8.063v-3.68h-8.062v-2.544h8.907v-3.96h-13.512v16.8h13.63v.005zM4.56 27.806v-9.6l4.276 6.527h.094l4.29-6.57v9.643h4.65v-16.8H12.94l-4.008 6.5-4.008-6.5H0v16.8h4.56zm21.6-6.293v6.293h4.65V21.44L37.2 11H31.98l-3.468 6.13L25.078 11H19.77l6.39 10.512z" fill="#26D7FC"/><path d="M76.393 30.504c3.498-5.416 4.18-12.3 1.612-18.4C74.895 4.72 67.64-.06 59.625 0c-5.224.02-10.228 2.115-13.908 5.824-3.68 3.71-5.737 8.728-5.717 13.954 0 8.012 4.835 15.233 12.244 18.285 6.217 2.56 13.216 1.762 18.642-1.923l5.64 5.86 5.468-5.678-5.6-5.818zM59.626 9.38c5.717.11 10.272 4.813 10.2 10.53-.074 5.717-4.748 10.303-10.465 10.267-5.717-.035-10.333-4.68-10.334-10.397.027-2.785 1.158-5.445 3.146-7.396 1.988-1.95 4.67-3.03 7.454-3.004z" fill="#FC0D1B"/></g></svg>