<svg xmlns="http://www.w3.org/2000/svg" width="24" height="24" viewBox="0 0 24 24"><defs><style>.cls-1 { fill: #111; fill-rule: evenodd; filter: url(#filter); }</style><filter id="filter" x="15" y="521" width="24" height="24" filterUnits="userSpaceOnUse"><feFlood result="flood" flood-color="#898989"/><feComposite result="composite" operator="in" in2="SourceGraphic"/><feBlend result="blend" in2="SourceGraphic"/></filter></defs><path id="menu-contest.svg" class="cls-1" d="M16.1 14c4.4-.15 7.9-6.05 7.9-11a1 1 0 0 0-1-1h-3c0-.35.05-.65.05-1a1 1 0 0 0-1-1H5.1a1 1 0 0 0-1 1 6.7 6.7 0 0 0 .05 1H1a1 1 0 0 0-1 1c0 4.95 3.6 10.95 8.05 11a5.8 5.8 0 0 0 3 1.9V22h-2a1 1 0 1 0 0 2H15a1 1 0 1 0 0-2h-2v-6.1a6.406 6.406 0 0 0 3.1-1.9zm5.85-10c-.3 2.95-2 6.15-4.1 7.4A21.885 21.885 0 0 0 19.9 4h2.05zM2.05 4h2.2a21.054 21.054 0 0 0 2.1 7.5C4.15 10.3 2.4 7 2.05 4zM6.1 2H18c-.25 7.2-3.2 12-5.95 12S6.35 9.2 6.1 2z"/></svg>