<svg width="26" height="22" viewBox="0 0 26 22" xmlns="http://www.w3.org/2000/svg"><path d="M6.073 22h-.005c-.543.02-1.07-.19-1.452-.575-.404-.464-.613-1.066-.586-1.68v-1.6h-.2c-2.1.01-3.815-1.68-3.83-3.78v-5.93c.02-2.102 1.738-3.79 3.84-3.776h13.59c2.103-.016 3.82 1.673 3.84 3.775v5.93c-.012 2.11-1.73 3.81-3.84 3.8h-6.487l-2.575 2.6c-.56.712-1.392 1.16-2.295 1.235zM3.843 6.192c-1.248-.01-2.268.995-2.28 2.243v5.93c.012 1.248 1.032 2.25 2.28 2.242l.984.022c.42.005.76.346.762.766v2.39c-.016.208.04.416.16.587.087.077.204.112.318.094v.767-.767c.464-.097.875-.364 1.152-.748l.145-.152 2.69-2.708c.148-.148.35-.23.558-.23h6.817c1.254.002 2.274-1.01 2.28-2.265v-5.93c-.012-1.248-1.032-2.252-2.28-2.243H3.842zm18.743 5.63c-.424 0-.767-.344-.767-.768 0-.424.342-.767.766-.767 1.015.008 1.846-.808 1.855-1.823V4.38c0-2-.864-2.847-2.894-2.847h-10.66C9.87 1.526 9.04 2.34 9.03 3.356c0 .43-.348.78-.78.78-.43 0-.78-.35-.78-.78.02-1.87 1.546-3.37 3.415-3.356h10.66C24.46 0 26 1.514 26 4.38v4.084c-.02 1.87-1.546 3.37-3.415 3.357zm-7.885-.94H5.47c-.28.01-.544-.134-.687-.375-.143-.24-.143-.542 0-.783.143-.24.407-.385.687-.375h9.23c.28-.01.544.133.687.374.143.24.143.542 0 .783-.143.24-.407.385-.687.375zm-4.062 3.323H5.47c-.424 0-.767-.343-.767-.767s.343-.767.767-.767h5.167c.424 0 .767.344.767.768 0 .424-.343.767-.767.767z" fill="#898989" fill-rule="evenodd"/></svg>