<svg width="26" height="21" viewBox="0 0 26 21" xmlns="http://www.w3.org/2000/svg"><g fill="#898989" fill-rule="evenodd"><path d="M12.15 2.78H5.038c-.2-.002-.395.077-.538.218-.143.142-.224.335-.225.536v15.724c.003.42.344.757.763.755h20.2c.42.002.76-.336.763-.755V3.534c0-.2-.08-.394-.224-.536-.143-.14-.337-.22-.538-.22H23.14L22.32.494c-.137-.382-.55-.59-.938-.47L12.15 2.778zm5.283 0h4.087l-.394-1.103-3.693 1.102zm5.18 1.51h1.862V18.5H5.8V4.29h16.813zm-.428 9.313h-5.54c-.202 0-.396-.078-.54-.22-.142-.14-.223-.334-.224-.535V6.8c.003-.42.345-.758.764-.756h5.54c.42-.002.762.337.764.756v6.047c0 .2-.082.393-.226.535-.143.14-.336.22-.537.218v.003zm-4.78-1.51h4.017V7.556h-4.016v4.537zm-3.854-4.537H8.34c-.417 0-.755-.338-.755-.755 0-.416.338-.754.755-.754h5.214c.417 0 .755.34.755.755 0 .418-.34.756-.756.756zm0 3.013H8.34c-.417 0-.755-.34-.755-.756 0-.417.338-.755.755-.755h5.214c.417 0 .755.338.755.755 0 .416-.34.754-.756.754zm0 3.015H8.34c-.276.01-.536-.132-.678-.37-.14-.237-.14-.534 0-.77.142-.24.402-.38.678-.37h5.214c.276-.01.536.13.677.37.14.237.14.533 0 .77-.143.24-.403.38-.68.37zm8.635 3.014H8.338c-.276.01-.536-.133-.678-.37-.14-.238-.14-.535 0-.772.142-.238.402-.38.678-.37h13.847c.418 0 .756.338.756.756s-.337.756-.755.756z"/><path d="M5.04 20.013c-.32 0-.607-.2-.717-.5L.047 7.783c-.07-.192-.058-.404.032-.587.088-.183.25-.322.443-.385L4.8 5.4c.398-.133.83.08.965.476.064.19.05.4-.042.578-.09.18-.25.315-.44.377L1.747 8l4.01 11c.07.19.06.398-.027.58-.086.18-.24.32-.43.387-.084.03-.17.045-.26.046z"/></g></svg>