<svg width="26" height="24" viewBox="0 0 26 24" xmlns="http://www.w3.org/2000/svg"><path d="M13.86 8.875V2.18h7.002c.298 0 .584.117.795.327.212.21.33.495.332.793v17.307c0 .227.09.445.25.605.163.16.38.25.608.25.228 0 .447-.09.608-.253.16-.162.25-.382.25-.61V3.3C23.7 1.734 22.428.468 20.862.47h-7.068l-.028-.05C13.62.17 13.36.015 13.076 0L13 0c-.022 0-.044 0-.066.002H5.437C3.823 0 2.513 1.306 2.51 2.92v17.687c0 .473.384.856.857.855.473 0 .857-.382.858-.855V2.92c.002-.668.544-1.21 1.212-1.21h6.705v18.897c0 .473.385.856.858.855.227 0 .446-.09.607-.25.16-.16.252-.38.252-.606v-10.02h2.583l-.537.648c-.21.256-.253.61-.112.91.142.3.443.49.774.49.255 0 .497-.112.66-.307l1.574-1.9c.094-.068.175-.155.236-.258.163-.27.162-.61 0-.88-.066-.11-.155-.203-.26-.272l-1.55-1.873c-.19-.244-.5-.366-.807-.317-.306.05-.563.26-.67.552-.107.292-.047.62.156.854l.53.64H13.86zM25.14 24H.86c-.313.01-.606-.15-.766-.42-.16-.268-.16-.603 0-.872.16-.27.453-.43.766-.42h24.284c.313-.01.606.15.765.42.16.27.16.604 0 .873-.16.27-.453.43-.766.42z" fill="#898989" fill-rule="evenodd"/></svg>