<svg width="32" height="21" viewBox="0 0 32 21" xmlns="http://www.w3.org/2000/svg"><g fill="#898989" fill-rule="evenodd"><path d="M16.932 16.36l-4.48-2.13c1.196-1.333 1.858-3.062 1.858-4.854v-2.77c0-2-2.683-4.12-5.22-4.12s-5.224 2.117-5.224 4.12V9.38c.034 1.792.71 3.512 1.908 4.845l-4.53 2.14C1.104 16.43 0 16.95 0 17.693v1.664c0 .743.6 1.347 1.344 1.35h15.49c.744-.002 1.347-.606 1.347-1.35v-1.664c-.162-.627-.63-1.13-1.245-1.333h-.003zm8.702-5.517h5.914v-.986h.003-5.916V7.885l-2.958 2.465 2.958 2.465v-1.972zM6.69 15.3c.35-.165.592-.5.638-.887.046-.386-.11-.77-.414-1.012-.583-.523-1.02-1.19-1.267-1.934-.252-.67-.39-1.376-.412-2.09V6.603c.13-.734.562-1.38 1.193-1.775.76-.604 1.696-.947 2.666-.978 1.86 0 3.855 1.616 3.855 2.752V9.38c-.015.713-.14 1.42-.373 2.092-.23.75-.663 1.42-1.25 1.938-.305.242-.463.623-.42 1.01.044.385.283.722.633.89l4.817 2.29.014.005.042.017c.147.065.284.148.41.247v1.464H1.362V17.88c.142-.113.296-.21.46-.285L6.69 15.3zm13.972 2.915h3.616c.744 0 1.347-.605 1.347-1.35v-1.663c-.165-.626-.635-1.126-1.25-1.328l-4.48-2.128c1.196-1.334 1.858-3.063 1.858-4.855V4.12c0-2-2.683-4.12-5.22-4.12-1.164.02-2.295.394-3.242 1.072-.556.4.144 1.6.577 1.273.762-.6 1.696-.943 2.666-.977 1.86 0 3.855 1.616 3.855 2.752v2.77c-.014.713-.14 1.42-.372 2.092-.23.75-.664 1.42-1.25 1.938-.305.242-.463.623-.42 1.01.044.385.283.722.633.89l4.816 2.29.014.005.04.017c.147.065.284.148.41.247v1.464h-3.528c-.86.004-.98 1.37-.07 1.37zm-.944 2.486v-.985H31.55v.986H19.72z"/><path d="M31.55 20.7h-.988V9.858h.986v10.847l.003-.003z"/></g></svg>