<svg xmlns="http://www.w3.org/2000/svg" width="26" height="21" viewBox="0 0 26 21"><defs><style>.cls-1 { fill: #898989; fill-rule: evenodd; }</style></defs><path id="menu-group.svg" class="cls-1" d="M20.96 18.475h3.668a1.368 1.368 0 0 0 1.366-1.367V15.42c0-.79-1.11-1.28-1.267-1.346l-4.543-2.158a7.376 7.376 0 0 0 1.884-4.924v-2.81c0-2.03-2.72-4.177-5.293-4.177a5.815 5.815 0 0 0-3.288 1.087c-.564.4.145 1.624.584 1.29a4.614 4.614 0 0 1 2.7-.99c1.888 0 3.91 1.638 3.91 2.79v2.81a6.9 6.9 0 0 1-.378 2.12 4.316 4.316 0 0 1-1.27 1.966 1.144 1.144 0 0 0 .218 1.93l4.885 2.322.014.006.04.018a1.932 1.932 0 0 1 .416.25v1.485H21.03c-.875 0-.994 1.385-.07 1.385zm-3.782-1.88l-4.543-2.16a7.376 7.376 0 0 0 1.884-4.923V6.7c0-2.03-2.722-4.177-5.294-4.177s-5.3 2.147-5.3 4.177v2.81a7.565 7.565 0 0 0 1.935 4.912L1.27 16.6c-.142.063-1.264.59-1.264 1.346v1.687A1.367 1.367 0 0 0 1.37 21h15.71a1.368 1.368 0 0 0 1.365-1.367v-1.687c0-.795-1.11-1.287-1.267-1.352zM6.788 15.52a1.144 1.144 0 0 0 .228-1.925 4.582 4.582 0 0 1-1.285-1.963 6.537 6.537 0 0 1-.417-2.12V6.7a2.67 2.67 0 0 1 1.21-1.8 4.58 4.58 0 0 1 2.7-.99c1.886 0 3.908 1.637 3.908 2.79v2.81a6.9 6.9 0 0 1-.377 2.12 4.31 4.31 0 0 1-1.268 1.965 1.144 1.144 0 0 0 .217 1.93l4.885 2.322.014.006.042.018a1.933 1.933 0 0 1 .416.25v1.486H1.39V18.14a2.292 2.292 0 0 1 .468-.29z"/></svg>