<svg width="22" height="22" viewBox="0 0 22 22" xmlns="http://www.w3.org/2000/svg"><path d="M20.48 16.755l-5.415-2.57c1.446-1.61 2.246-3.697 2.246-5.86V4.978C17.31 2.56 14.068.005 11 .005c-3.067 0-6.316 2.556-6.316 4.973v3.344c.04 2.163.86 4.24 2.307 5.848l-5.476 2.584c-.168.075-1.506.7-1.506 1.6v2.008c0 .9.728 1.627 1.627 1.628h18.73c.898 0 1.627-.73 1.628-1.628v-2.008c0-.938-1.325-1.523-1.512-1.6zM8.094 15.477c.424-.2.715-.605.77-1.07.056-.467-.133-.928-.5-1.222-.704-.633-1.232-1.438-1.53-2.337-.307-.808-.476-1.66-.5-2.524V4.98c.155-.887.68-1.666 1.44-2.144.922-.73 2.053-1.142 3.227-1.18 2.25 0 4.66 1.95 4.66 3.323v3.344c-.016.86-.168 1.71-.45 2.524-.278.905-.8 1.715-1.512 2.34-.37.29-.564.754-.51 1.222.052.47.343.876.77 1.078l5.823 2.762.018.008.05.02c.177.08.345.18.5.3v1.77H1.657V18.6c.17-.137.358-.253.557-.344l5.878-2.78z" fill="#898989" fill-rule="evenodd"/></svg>