<svg width="22" height="26" viewBox="0 0 22 26" xmlns="http://www.w3.org/2000/svg"><path d="M21.013 19c.002-.033.003-.067 0-.1V5.86c.013-1.58-1.256-2.87-2.835-2.886h-.543v-1.12c.015-.315-.143-.61-.413-.772-.27-.162-.605-.162-.874 0-.27.16-.428.457-.413.77v1.122H6.067v-1.12c.015-.315-.143-.61-.413-.772-.27-.162-.605-.162-.874 0-.27.16-.428.457-.413.77v1.122h-.543C2.244 2.99.976 4.28.988 5.86v16.268c-.01 1.578 1.258 2.868 2.836 2.883h7.558c.022.003.043.004.065.004.03 0 .058-.004.086-.005.36-.04 8.814-.96 9.472-5.82.006-.038.008-.078.008-.118V19zm-1.7-1.4v-7.59H2.69v12.117c-.004.63.503 1.146 1.134 1.152h7.516c1.162-.354 2.162-1.108 2.82-2.13.552-1.13.61-2.44.164-3.616-.092-.303-.014-.63.205-.86.216-.227.54-.314.842-.226l3.942 1.15zM4.368 4.704v.9c-.004.473.377.86.85.865.23-.003.447-.096.606-.26.16-.162.247-.382.244-.61v-.895h9.868v.9c-.004.473.377.86.85.865h.002c.228-.003.445-.096.604-.26.16-.163.248-.382.245-.61v-.895h.545c.303.003.593.126.806.342.213.217.33.51.328.812v2.42H2.69V5.86c-.003-.304.115-.596.328-.813.213-.216.503-.34.806-.342h.543zm6.55 14.844c-.473-.005-.853-.392-.85-.866V14.3l-.32.33c-.16.16-.376.25-.6.25-.226 0-.442-.09-.6-.25-.333-.342-.333-.884 0-1.225l1.774-1.81c.243-.246.61-.32.93-.188.32.137.526.452.524.8v6.474c.003.23-.086.45-.247.613-.16.163-.38.254-.608.255h-.002zm5.352-1.036c.17 1.204-.053 2.432-.635 3.5-.063.113-.13.22-.2.325 1.724-.625 3.347-1.583 3.788-2.968l-2.954-.858z" fill="#898989" fill-rule="evenodd"/></svg>