<svg xmlns="http://www.w3.org/2000/svg" width="36" height="20" viewBox="0 0 36 20"><defs><style>.cls-1 { fill: #00d7ff; fill-rule: evenodd; }</style></defs><path id="people.svg" class="cls-1" d="M36 15.207l-.22-3.255v-.11c-.22-1.133-1.42-2.084-3.61-2.816a.766.766 0 0 1-.48-.475.816.816 0 0 1 .04-.584 7.537 7.537 0 0 0 .98-2.6 4.688 4.688 0 0 0-.95-4.132A4.056 4.056 0 0 0 28.69-.01a4.01 4.01 0 0 0-3.07 1.244 4.742 4.742 0 0 0-.946 4.132 7.214 7.214 0 0 0 .986 2.6.566.566 0 0 1 .04.585.9.9 0 0 1-.48.476c-1.9.68-3.067 1.5-3.488 2.44l-.2-.068-.06-.022A.867.867 0 0 1 21 10.9l-.006-.01a.838.838 0 0 1 .032-.556l.01-.02a7.146 7.146 0 0 0 .988-2.6 4.733 4.733 0 0 0-.95-4.132A4.012 4.012 0 0 0 18 2.342a4.014 4.014 0 0 0-3.07 1.244 4.73 4.73 0 0 0-.95 4.133 7.13 7.13 0 0 0 .987 2.6l.01.018a.838.838 0 0 1 .033.555L15 10.9a.867.867 0 0 1-.475.475l-.06.022c-.067.023-.134.045-.2.07-.42-.94-1.584-1.763-3.49-2.442a.867.867 0 0 1-.475-.475.566.566 0 0 1 .036-.585 7.1 7.1 0 0 0 .987-2.6 4.727 4.727 0 0 0-.95-4.132A4.013 4.013 0 0 0 7.303-.01a4.07 4.07 0 0 0-3.07 1.243 4.733 4.733 0 0 0-.95 4.132 7.426 7.426 0 0 0 .987 2.6.834.834 0 0 1 .037.585.77.77 0 0 1-.475.475C1.64 9.757.432 10.708.214 11.84v.11L0 15.208c-.036.62.183.587.585 1.026A2.25 2.25 0 0 0 2.193 17h8.5a4.327 4.327 0 0 0 .588 2.24 2.44 2.44 0 0 0 .245.23 2.165 2.165 0 0 0 1.368.537h10.23a2.164 2.164 0 0 0 1.366-.537 2.44 2.44 0 0 0 .243-.23 4.056 4.056 0 0 0 .584-2.177h8.5a2.252 2.252 0 0 0 1.61-.768A1.157 1.157 0 0 0 36 15.207zm-25.063-1.124c-.01.037-.02.073-.028.11a15.52 15.52 0 0 0-.14 1.782H2.152a.818.818 0 0 1-.548-.292 1.24 1.24 0 0 1-.182-.622l.22-2.962c.108-.44.876-1.1 2.63-1.72a2.347 2.347 0 0 0 1.352-1.352 2.14 2.14 0 0 0-.183-1.828 6.354 6.354 0 0 1-.767-2.12 3.373 3.373 0 0 1 .585-2.89 3.014 3.014 0 0 1 4.02 0 3.313 3.313 0 0 1 .584 2.89 5.633 5.633 0 0 1-.767 2.12 2.14 2.14 0 0 0-.183 1.828 2.162 2.162 0 0 0 1.352 1.353c1.71.615 2.49 1.23 2.645 1.666a3.465 3.465 0 0 0-1.973 2.037zm12.693 4.17a.82.82 0 0 1-.55.29H12.92a.82.82 0 0 1-.55-.29.676.676 0 0 1-.182-.587c.146-2.742.182-3.18.182-3.18.074-.44.84-1.1 2.668-1.757a2.16 2.16 0 0 0 1.352-1.354 2.136 2.136 0 0 0-.182-1.828 5.614 5.614 0 0 1-.768-2.122 3.312 3.312 0 0 1 .585-2.89 2.926 2.926 0 0 1 3.95 0 3.312 3.312 0 0 1 .585 2.89 5.614 5.614 0 0 1-.768 2.122 2.136 2.136 0 0 0-.182 1.828 2.162 2.162 0 0 0 1.352 1.353c1.827.658 2.594 1.316 2.668 1.755 0 0 .036.44.182 3.18a.676.676 0 0 1-.182.587zm10.76-2.57a.786.786 0 0 1-.54.292h-8.62a13.637 13.637 0 0 0-.14-1.783l-.03-.11a3.45 3.45 0 0 0-1.97-2.036c.154-.436.936-1.05 2.64-1.667a2.176 2.176 0 0 0 1.36-1.354 2.134 2.134 0 0 0-.19-1.828 5.574 5.574 0 0 1-.76-2.12 3.326 3.326 0 0 1 .58-2.89 3.014 3.014 0 0 1 4.02 0 3.387 3.387 0 0 1 .59 2.89 6.553 6.553 0 0 1-.77 2.12 2.17 2.17 0 0 0-.19 1.828 2.366 2.366 0 0 0 1.36 1.353c1.75.62 2.52 1.28 2.63 1.718l.22 3.182a.6.6 0 0 1-.19.403z"/></svg>