<svg xmlns="http://www.w3.org/2000/svg" width="418.531" height="410.625" viewBox="0 0 418.531 410.625"><defs><style>.cls-1 { fill: #fc0d1b; fill-opacity: 0.7; fill-rule: evenodd; opacity: 0.08; }</style></defs><path id="q-bg.svg" class="cls-1" d="M362.718 298.214a190.186 190.186 0 0 0 16.063-179.882C347.796 46.132 275.46-.594 195.6.004a198.276 198.276 0 0 0-138.633 56.93A190.717 190.717 0 0 0-.008 193.35c0 78.336 48.192 148.93 122.033 178.767a200.41 200.41 0 0 0 185.8-18.8l56.228 57.29 54.487-55.52zM195.6 91.696c56.975 1.073 102.38 47.06 101.653 102.953s-47.313 100.725-104.3 100.374-102.99-45.755-103-101.655a101.708 101.708 0 0 1 31.355-72.3A105.733 105.733 0 0 1 195.6 91.695z"/></svg>