<svg xmlns="http://www.w3.org/2000/svg" width="24" height="24" viewBox="0 0 24 24"><defs><style>.cls-1 { fill: #d8d8d8; fill-rule: evenodd; }</style></defs><path id="settings.svg" class="cls-1" d="M21.51 8.994a10.583 10.583 0 0 0-.648-1.59 2.48 2.48 0 0 0 .7-1.74 2.567 2.567 0 0 0-.7-1.74l-.8-.8a2.5 2.5 0 0 0-3.485 0 11.88 11.88 0 0 0-1.594-.7A2.44 2.44 0 0 0 12.548 0h-1.1a2.527 2.527 0 0 0-2.49 2.484 10.707 10.707 0 0 0-1.592.646 2.438 2.438 0 0 0-3.436 0l-.8.8a2.48 2.48 0 0 0-.7 1.74 2.573 2.573 0 0 0 .7 1.74A11.7 11.7 0 0 0 2.43 9a2.44 2.44 0 0 0-2.44 2.434v1.093a2.526 2.526 0 0 0 2.49 2.484 10.744 10.744 0 0 0 .647 1.592 2.48 2.48 0 0 0-.7 1.74 2.57 2.57 0 0 0 .7 1.738l.8.795a2.5 2.5 0 0 0 3.486 0 11.684 11.684 0 0 0 1.593.7A2.44 2.44 0 0 0 11.452 24h1.1a2.527 2.527 0 0 0 2.49-2.485 10.6 10.6 0 0 0 1.592-.646 2.438 2.438 0 0 0 3.436 0l.8-.796a2.486 2.486 0 0 0 0-3.478 11.71 11.71 0 0 0 .7-1.59A2.44 2.44 0 0 0 24 12.57v-1.094a2.526 2.526 0 0 0-2.49-2.484zm.5 3.578a.446.446 0 0 1-.448.447 2.015 2.015 0 0 0-1.892 1.44 9.323 9.323 0 0 1-.5 1.242 1.947 1.947 0 0 0 .348 2.336.424.424 0 0 1 0 .646l-.8.8a.552.552 0 0 1-.3.15.47.47 0 0 1-.35-.15 2.043 2.043 0 0 0-2.34-.348 5.424 5.424 0 0 1-1.244.5 2.027 2.027 0 0 0-1.443 1.938.446.446 0 0 1-.447.447h-1.1a.446.446 0 0 1-.448-.446 2.015 2.015 0 0 0-1.444-1.89 13.267 13.267 0 0 1-1.244-.5 2.22 2.22 0 0 0-.945-.248 1.89 1.89 0 0 0-1.4.6.54.54 0 0 1-.3.15.337.337 0 0 1-.3-.15l-.8-.8a.547.547 0 0 1-.148-.3.466.466 0 0 1 .15-.348 2.02 2.02 0 0 0 .348-2.335 5.43 5.43 0 0 1-.5-1.243 2.032 2.032 0 0 0-1.942-1.44.446.446 0 0 1-.448-.448V11.53a.446.446 0 0 1 .448-.448 2.017 2.017 0 0 0 1.892-1.44 9.39 9.39 0 0 1 .5-1.244 1.947 1.947 0 0 0-.348-2.335.546.546 0 0 1-.15-.3.334.334 0 0 1 .15-.3l.8-.8a.545.545 0 0 1 .3-.15.466.466 0 0 1 .348.15 2.045 2.045 0 0 0 2.34.347 5.458 5.458 0 0 1 1.245-.5 2.028 2.028 0 0 0 1.444-1.938.446.446 0 0 1 .447-.448h1.1a.447.447 0 0 1 .448.448 2.015 2.015 0 0 0 1.443 1.888 9.177 9.177 0 0 1 1.245.5 1.968 1.968 0 0 0 2.34-.348.552.552 0 0 1 .3-.15.337.337 0 0 1 .3.15l.8.8a.543.543 0 0 1 .15.3.465.465 0 0 1-.15.348 2.023 2.023 0 0 0-.348 2.335 5.448 5.448 0 0 1 .5 1.243 2.032 2.032 0 0 0 1.942 1.44.446.446 0 0 1 .448.448v1.044zm-9.958-5.516a4.97 4.97 0 1 0 4.98 4.97 4.988 4.988 0 0 0-4.982-4.97zm0 7.95a2.982 2.982 0 1 1 2.987-2.98 2.992 2.992 0 0 1-2.99 2.98z"/></svg>