<svg xmlns="http://www.w3.org/2000/svg" width="17" height="18" viewBox="0 0 17 18"><defs><style>.cls-1 { fill: #888; fill-rule: evenodd; }</style></defs><path id="share.svg" class="cls-1" d="M4.764 18.008a.758.758 0 0 1-.294-.06C.82 16.418-.844 12.516.42 8.46c1.162-3.715 4.01-5.6 8.464-5.6h.5V.71A.726.726 0 0 1 9.84.043a.765.765 0 0 1 .81.15l6.122 5.82a.712.712 0 0 1 0 1.04l-6.124 5.823a.763.763 0 0 1-.808.15.726.726 0 0 1-.457-.668l-.007-2.28a3.975 3.975 0 0 0-3.294.866 4.356 4.356 0 0 0-1.476 3.525 7.78 7.78 0 0 0 .81 2.463.715.715 0 0 1-.1.84.758.758 0 0 1-.552.238zm4.12-13.7c-3.774 0-6.076 1.5-7.038 4.57a6.313 6.313 0 0 0 1.437 6.578 8.152 8.152 0 0 1-.152-.8 5.736 5.736 0 0 1 1.962-4.8 5.552 5.552 0 0 1 5.213-1.078.732.732 0 0 1 .562.7v1.153l4.315-4.1-4.31-4.1v1.156a.736.736 0 0 1-.745.726H8.88z"/></svg>