<svg xmlns="http://www.w3.org/2000/svg" width="28" height="29" viewBox="0 0 28 29"><defs><style>.cls-1 { fill: #f40000; fill-rule: evenodd; }</style></defs><path id="user.svg" class="cls-1" d="M26.075 22.09l-6.9-3.388c2.25-2.21 2.86-5.962 2.86-7.73V6.558C22.036 3.37 17.906 0 14 0S5.953 3.372 5.953 6.56v4.41c0 1.925.807 5.582 2.938 7.713L1.917 22.09C1.7 22.19 0 23.02 0 24.2v2.65A2.113 2.113 0 0 0 2.072 29h23.854A2.114 2.114 0 0 0 28 26.853V24.2c0-1.235-1.687-2.008-1.925-2.11zM10.3 20.4a1.78 1.78 0 0 0 .982-1.413 1.816 1.816 0 0 0-.637-1.61 7.226 7.226 0 0 1-1.95-3.082 10.564 10.564 0 0 1-.636-3.33V6.56a4.208 4.208 0 0 1 1.836-2.826A6.818 6.818 0 0 1 14 2.178c2.866 0 5.936 2.572 5.936 4.38v4.412a11.166 11.166 0 0 1-.574 3.33 6.8 6.8 0 0 1-1.926 3.086 1.81 1.81 0 0 0-.65 1.61 1.78 1.78 0 0 0 .98 1.42l7.417 3.644.02.01.064.028a2.96 2.96 0 0 1 .63.392v2.52H2.1v-2.494a3.458 3.458 0 0 1 .71-.454z"/></svg>