<svg width="50" height="30" viewBox="0 0 50 30" xmlns="http://www.w3.org/2000/svg"><path d="M42.386 18.327c.293.366.992 1.078 2.103 2.136h.025l.026.027.028.027.052.053c2.45 2.276 4.106 4.192 4.97 5.756.054.087.114.193.174.326.06.127.12.36.18.686.06.332.06.625-.014.885-.066.26-.286.5-.652.718-.36.22-.872.328-1.53.328l-6.668.107c-.42.086-.905.04-1.457-.133-.56-.172-1.012-.365-1.358-.572l-.52-.312c-.518-.366-1.13-.92-1.822-1.67-.692-.746-1.29-1.418-1.784-2.017-.49-.6-1.024-1.1-1.59-1.51-.566-.406-1.05-.54-1.47-.4-.054.014-.12.047-.207.087-.087.046-.233.173-.446.38-.206.205-.392.465-.56.764-.165.307-.312.76-.438 1.36-.134.6-.187 1.27-.174 2.015 0 .26-.027.5-.093.72-.06.212-.12.378-.193.478l-.106.133c-.306.326-.772.52-1.377.572h-2.995c-1.23.067-2.502-.073-3.8-.432-1.304-.353-2.448-.812-3.426-1.378-.98-.565-1.877-1.138-2.682-1.717-.805-.584-1.418-1.083-1.837-1.496l-.652-.625c-.173-.174-.413-.44-.712-.787-.306-.346-.925-1.137-1.863-2.37-.938-1.23-1.857-2.54-2.762-3.93-.898-1.385-1.963-3.222-3.187-5.49-1.223-2.277-2.354-4.64-3.4-7.088-.105-.28-.152-.513-.152-.7 0-.192.02-.332.073-.418l.108-.16c.26-.326.758-.492 1.484-.492l7.134-.054c.213.035.406.095.6.174.192.074.332.154.42.22l.125.08c.28.186.49.466.625.832.353.865.752 1.763 1.198 2.695.453.93.812 1.638 1.072 2.124l.412.75c.506 1.046.992 1.95 1.464 2.71.467.765.886 1.364 1.26 1.783.372.426.74.766 1.084 1.005.346.247.638.367.885.367.24 0 .48-.047.697-.134.04-.013.08-.06.133-.126.053-.074.153-.26.312-.573.153-.312.273-.725.353-1.224.08-.505.16-1.21.246-2.11.09-.904.09-1.988 0-3.253-.03-.698-.11-1.33-.23-1.903-.127-.572-.247-.97-.367-1.198l-.16-.313c-.432-.593-1.17-.965-2.21-1.118-.225-.04-.178-.248.128-.627.3-.333.626-.592.99-.785.92-.453 2.997-.66 6.224-.626 1.424.02 2.595.132 3.52.34.346.085.64.205.872.35.233.148.413.36.532.627.12.272.213.545.273.83.06.286.094.685.094 1.184 0 .506-.013.985-.026 1.438-.02.446-.04 1.06-.067 1.83-.025.78-.04 1.49-.04 2.15 0 .193-.005.56-.025 1.098-.014.54-.02.952-.014 1.244.015.3.04.653.095 1.058.053.406.153.746.3 1.02.145.265.345.478.585.63.138.04.285.074.444.107.153.033.38-.06.68-.287.292-.225.618-.525.984-.897.366-.373.82-.952 1.358-1.744.532-.793 1.124-1.724 1.77-2.802 1.038-1.804 1.97-3.76 2.78-5.856.074-.173.16-.326.267-.46.1-.126.193-.22.287-.272l.1-.08c.033-.013.08-.033.132-.06.054-.027.167-.053.34-.08.173-.026.346-.033.52-.013l7.498-.054c.68-.087 1.232-.067 1.664.066.44.127.705.273.812.426l.153.266c.397 1.112-.9 3.66-3.908 7.653-.413.56-.978 1.29-1.69 2.216-1.358 1.738-2.137 2.87-2.343 3.408-.3.713-.174 1.418.365 2.11v-.003z" fill="#FFF" fill-rule="evenodd"/></svg>